<svg width="40" height="40" viewBox="0 0 40 40" fill="none" xmlns="http://www.w3.org/2000/svg">
<circle cx="20" cy="20" r="20" fill="#7AC751"/>
<path d="M15.4816 19.6667C15.3883 19.6667 15.309 19.634 15.2436 19.5687C15.1783 19.5033 15.1456 19.424 15.1456 19.3307V12.0787L13.0176 13.7167C12.9616 13.7633 12.8963 13.7867 12.8216 13.7867C12.7096 13.7867 12.6163 13.7353 12.5416 13.6327L11.9536 12.8767C11.907 12.802 11.8836 12.732 11.8836 12.6667C11.8836 12.5547 11.935 12.4613 12.0376 12.3867L15.1736 9.96467C15.2576 9.89934 15.3743 9.86667 15.5236 9.86667H16.7556C16.8583 9.86667 16.9376 9.89934 16.9936 9.96467C17.059 10.0207 17.0916 10.1 17.0916 10.2027V19.3307C17.0916 19.424 17.059 19.5033 16.9936 19.5687C16.9376 19.634 16.8583 19.6667 16.7556 19.6667H15.4816ZM22.6761 19.8067C21.4348 19.8067 20.5061 19.4613 19.8901 18.7707C19.2834 18.08 18.9521 17.1747 18.8961 16.0547C18.8868 15.8027 18.8821 15.3733 18.8821 14.7667C18.8821 14.1507 18.8868 13.712 18.8961 13.4507C18.9428 12.3493 19.2788 11.4533 19.9041 10.7627C20.5294 10.072 21.4534 9.72667 22.6761 9.72667C23.9081 9.72667 24.8368 10.072 25.4621 10.7627C26.0874 11.4533 26.4188 12.3493 26.4561 13.4507C26.4748 13.712 26.4841 14.1507 26.4841 14.7667C26.4841 15.3733 26.4748 15.8027 26.4561 16.0547C26.4094 17.1747 26.0781 18.08 25.4621 18.7707C24.8554 19.4613 23.9268 19.8067 22.6761 19.8067ZM22.6761 18.1967C23.2641 18.1967 23.7028 18.0053 23.9921 17.6227C24.2814 17.2307 24.4354 16.6847 24.4541 15.9847C24.4728 15.4433 24.4821 15.0327 24.4821 14.7527C24.4821 14.4447 24.4728 14.0387 24.4541 13.5347C24.4354 12.844 24.2814 12.3027 23.9921 11.9107C23.7028 11.5187 23.2641 11.3227 22.6761 11.3227C22.0974 11.3227 21.6588 11.5187 21.3601 11.9107C21.0708 12.3027 20.9168 12.844 20.8981 13.5347C20.8888 13.7867 20.8841 14.1927 20.8841 14.7527C20.8841 15.3033 20.8888 15.714 20.8981 15.9847C20.9168 16.6847 21.0708 17.2307 21.3601 17.6227C21.6588 18.0053 22.0974 18.1967 22.6761 18.1967Z" fill="white"/>
<path d="M13.0505 30.4444C13.0105 30.4444 12.9765 30.4324 12.9485 30.4084C12.9245 30.3804 12.9125 30.3464 12.9125 30.3064V26.3884C12.9125 26.3444 12.9245 26.3104 12.9485 26.2864C12.9765 26.2584 13.0105 26.2444 13.0505 26.2444H14.4125C15.0165 26.2444 15.4525 26.3804 15.7205 26.6524C15.9885 26.9204 16.1285 27.3264 16.1405 27.8704C16.1445 27.9864 16.1465 28.1424 16.1465 28.3384C16.1465 28.5344 16.1445 28.6924 16.1405 28.8124C16.1285 29.1924 16.0645 29.5024 15.9485 29.7424C15.8365 29.9784 15.6585 30.1544 15.4145 30.2704C15.1705 30.3864 14.8465 30.4444 14.4425 30.4444H13.0505ZM14.4125 29.9344C14.6885 29.9344 14.9065 29.8964 15.0665 29.8204C15.2305 29.7444 15.3485 29.6244 15.4205 29.4604C15.4965 29.2924 15.5385 29.0684 15.5465 28.7884C15.5545 28.5484 15.5585 28.3984 15.5585 28.3384C15.5585 28.2744 15.5545 28.1264 15.5465 27.8944C15.5385 27.4984 15.4445 27.2104 15.2645 27.0304C15.0845 26.8464 14.7905 26.7544 14.3825 26.7544H13.5005V29.9344H14.4125ZM16.7269 30.4444C16.6949 30.4444 16.6669 30.4324 16.6429 30.4084C16.6189 30.3844 16.6069 30.3564 16.6069 30.3244C16.6069 30.2924 16.6089 30.2704 16.6129 30.2584L18.1009 26.3764C18.1329 26.2884 18.1969 26.2444 18.2929 26.2444H18.7009C18.7969 26.2444 18.8609 26.2884 18.8929 26.3764L20.3749 30.2584L20.3869 30.3244C20.3869 30.3564 20.3749 30.3844 20.3509 30.4084C20.3269 30.4324 20.2989 30.4444 20.2669 30.4444H19.9609C19.9169 30.4444 19.8829 30.4344 19.8589 30.4144C19.8349 30.3904 19.8189 30.3664 19.8109 30.3424L19.4809 29.4904H17.5129L17.1829 30.3424C17.1749 30.3664 17.1569 30.3904 17.1289 30.4144C17.1049 30.4344 17.0729 30.4444 17.0329 30.4444H16.7269ZM19.3069 28.9744L18.4969 26.8444L17.6869 28.9744H19.3069ZM21.8849 30.4444C21.8449 30.4444 21.8109 30.4324 21.7829 30.4084C21.7589 30.3804 21.7469 30.3464 21.7469 30.3064V28.8904L20.3009 26.4424C20.3009 26.4344 20.2989 26.4224 20.2949 26.4064C20.2869 26.3904 20.2829 26.3764 20.2829 26.3644C20.2829 26.3324 20.2949 26.3044 20.3189 26.2804C20.3429 26.2564 20.3709 26.2444 20.4029 26.2444H20.7149C20.7829 26.2444 20.8349 26.2784 20.8709 26.3464L22.0409 28.2904L23.2109 26.3464C23.2549 26.2784 23.3089 26.2444 23.3729 26.2444H23.6789C23.7149 26.2444 23.7449 26.2564 23.7689 26.2804C23.7929 26.3044 23.8049 26.3324 23.8049 26.3644C23.8049 26.3844 23.7969 26.4104 23.7809 26.4424L22.3409 28.8904V30.3064C22.3409 30.3464 22.3269 30.3804 22.2989 30.4084C22.2709 30.4324 22.2369 30.4444 22.1969 30.4444H21.8849ZM25.749 30.5044C25.417 30.5044 25.129 30.4524 24.885 30.3484C24.645 30.2444 24.461 30.1084 24.333 29.9404C24.205 29.7684 24.137 29.5844 24.129 29.3884C24.129 29.3564 24.141 29.3284 24.165 29.3044C24.193 29.2764 24.225 29.2624 24.261 29.2624H24.567C24.643 29.2624 24.695 29.3024 24.723 29.3824C24.759 29.5504 24.861 29.6944 25.029 29.8144C25.201 29.9344 25.441 29.9944 25.749 29.9944C26.081 29.9944 26.331 29.9364 26.499 29.8204C26.667 29.7004 26.751 29.5344 26.751 29.3224C26.751 29.1864 26.709 29.0764 26.625 28.9924C26.545 28.9084 26.425 28.8344 26.265 28.7704C26.105 28.7064 25.865 28.6264 25.545 28.5304C25.233 28.4424 24.985 28.3484 24.801 28.2484C24.617 28.1484 24.479 28.0244 24.387 27.8764C24.295 27.7284 24.249 27.5424 24.249 27.3184C24.249 27.1024 24.307 26.9084 24.423 26.7364C24.543 26.5644 24.713 26.4304 24.933 26.3344C25.153 26.2344 25.415 26.1844 25.719 26.1844C26.031 26.1844 26.299 26.2404 26.523 26.3524C26.747 26.4604 26.917 26.5984 27.033 26.7664C27.149 26.9344 27.211 27.1024 27.219 27.2704C27.219 27.3024 27.207 27.3304 27.183 27.3544C27.163 27.3784 27.133 27.3904 27.093 27.3904H26.775C26.691 27.3904 26.639 27.3524 26.619 27.2764C26.595 27.1084 26.501 26.9704 26.337 26.8624C26.173 26.7504 25.967 26.6944 25.719 26.6944C25.447 26.6944 25.233 26.7464 25.077 26.8504C24.921 26.9544 24.843 27.1084 24.843 27.3124C24.843 27.4484 24.879 27.5604 24.951 27.6484C25.027 27.7364 25.141 27.8144 25.293 27.8824C25.445 27.9464 25.667 28.0204 25.959 28.1044C26.299 28.1964 26.567 28.2924 26.763 28.3924C26.959 28.4884 27.105 28.6104 27.201 28.7584C27.297 28.9024 27.345 29.0864 27.345 29.3104C27.345 29.6824 27.201 29.9744 26.913 30.1864C26.625 30.3984 26.237 30.5044 25.749 30.5044Z" fill="white"/>
</svg>
