<svg width="40" height="40" viewBox="0 0 40 40" fill="none" xmlns="http://www.w3.org/2000/svg">
<circle cx="20" cy="20" r="20" fill="#7AC751"/>
<path d="M15.7414 19.6667C15.6481 19.6667 15.5687 19.6341 15.5034 19.5687C15.4381 19.5034 15.4054 19.4241 15.4054 19.3307V12.0787L13.2774 13.7167C13.2214 13.7634 13.1561 13.7867 13.0814 13.7867C12.9694 13.7867 12.8761 13.7354 12.8014 13.6327L12.2134 12.8767C12.1667 12.8021 12.1434 12.7321 12.1434 12.6667C12.1434 12.5547 12.1947 12.4614 12.2974 12.3867L15.4334 9.96475C15.5174 9.89941 15.6341 9.86675 15.7834 9.86675H17.0154C17.1181 9.86675 17.1974 9.89941 17.2534 9.96475C17.3187 10.0207 17.3514 10.1001 17.3514 10.2027V19.3307C17.3514 19.4241 17.3187 19.5034 17.2534 19.5687C17.1974 19.6341 17.1181 19.6667 17.0154 19.6667H15.7414ZM22.6279 19.8207C21.8532 19.8207 21.1859 19.6901 20.6259 19.4287C20.0752 19.1674 19.6505 18.8221 19.3519 18.3927C19.0625 17.9634 18.9085 17.5014 18.8899 17.0067V16.9787C18.8899 16.9041 18.9179 16.8434 18.9739 16.7967C19.0299 16.7501 19.0999 16.7267 19.1839 16.7267H20.4859C20.7005 16.7267 20.8405 16.8201 20.9059 17.0067C21.0365 17.4174 21.2512 17.7207 21.5499 17.9167C21.8579 18.1127 22.2172 18.2107 22.6279 18.2107C23.1505 18.2107 23.5845 18.0521 23.9299 17.7347C24.2845 17.4174 24.4619 16.9741 24.4619 16.4047C24.4619 15.9007 24.2845 15.4901 23.9299 15.1727C23.5845 14.8554 23.1505 14.6967 22.6279 14.6967C22.3479 14.6967 22.1192 14.7341 21.9419 14.8087C21.7645 14.8834 21.5919 14.9861 21.4239 15.1167C21.3119 15.2007 21.2232 15.2614 21.1579 15.2987C21.1019 15.3267 21.0319 15.3407 20.9479 15.3407H19.6599C19.5759 15.3407 19.5012 15.3127 19.4359 15.2567C19.3799 15.1914 19.3519 15.1167 19.3519 15.0327L19.8419 10.2447C19.8512 10.1327 19.8885 10.0441 19.9539 9.97875C20.0285 9.90408 20.1219 9.86675 20.2339 9.86675H25.4979C25.5912 9.86675 25.6705 9.89941 25.7359 9.96475C25.8012 10.0301 25.8339 10.1094 25.8339 10.2027V11.1407C25.8339 11.2341 25.8012 11.3134 25.7359 11.3787C25.6705 11.4441 25.5912 11.4767 25.4979 11.4767H21.4519L21.2279 13.7587C21.6852 13.4414 22.2965 13.2827 23.0619 13.2827C23.6685 13.2827 24.2285 13.4134 24.7419 13.6747C25.2645 13.9267 25.6799 14.2954 25.9879 14.7807C26.2959 15.2567 26.4499 15.8121 26.4499 16.4467C26.4499 17.1281 26.2912 17.7254 25.9739 18.2387C25.6565 18.7427 25.2085 19.1347 24.6299 19.4147C24.0605 19.6854 23.3932 19.8207 22.6279 19.8207Z" fill="white"/>
<path d="M14.8789 30.4444C14.8389 30.4444 14.8049 30.4324 14.7769 30.4084C14.7529 30.3804 14.7409 30.3464 14.7409 30.3064V26.3884C14.7409 26.3444 14.7529 26.3104 14.7769 26.2864C14.8049 26.2584 14.8389 26.2444 14.8789 26.2444H15.1849C15.2289 26.2444 15.2629 26.2584 15.2869 26.2864C15.3149 26.3104 15.3289 26.3444 15.3289 26.3884V28.0444H17.3929V26.3884C17.3929 26.3444 17.4049 26.3104 17.4289 26.2864C17.4569 26.2584 17.4909 26.2444 17.5309 26.2444H17.8369C17.8809 26.2444 17.9149 26.2584 17.9389 26.2864C17.9669 26.3104 17.9809 26.3444 17.9809 26.3884V30.3064C17.9809 30.3464 17.9669 30.3804 17.9389 30.4084C17.9109 30.4324 17.8769 30.4444 17.8369 30.4444H17.5309C17.4909 30.4444 17.4569 30.4324 17.4289 30.4084C17.4049 30.3804 17.3929 30.3464 17.3929 30.3064V28.5844H15.3289V30.3064C15.3289 30.3464 15.3149 30.3804 15.2869 30.4084C15.2589 30.4324 15.2249 30.4444 15.1849 30.4444H14.8789ZM19.1921 30.4444C19.1521 30.4444 19.1181 30.4324 19.0901 30.4084C19.0661 30.3804 19.0541 30.3464 19.0541 30.3064V26.3884C19.0541 26.3444 19.0661 26.3104 19.0901 26.2864C19.1181 26.2584 19.1521 26.2444 19.1921 26.2444H20.6561C21.1161 26.2444 21.4761 26.3524 21.7361 26.5684C21.9961 26.7844 22.1261 27.0964 22.1261 27.5044C22.1261 27.8084 22.0501 28.0584 21.8981 28.2544C21.7501 28.4504 21.5401 28.5864 21.2681 28.6624L22.1921 30.2584C22.2041 30.2824 22.2101 30.3044 22.2101 30.3244C22.2101 30.3564 22.1961 30.3844 22.1681 30.4084C22.1441 30.4324 22.1161 30.4444 22.0841 30.4444H21.7961C21.7361 30.4444 21.6881 30.4304 21.6521 30.4024C21.6201 30.3744 21.5901 30.3344 21.5621 30.2824L20.6921 28.7584H19.6421V30.3064C19.6421 30.3464 19.6281 30.3804 19.6001 30.4084C19.5721 30.4324 19.5381 30.4444 19.4981 30.4444H19.1921ZM20.6321 28.2484C21.2281 28.2484 21.5261 27.9984 21.5261 27.4984C21.5261 26.9984 21.2281 26.7484 20.6321 26.7484H19.6421V28.2484H20.6321ZM24.3658 30.5044C24.0338 30.5044 23.7458 30.4524 23.5018 30.3484C23.2618 30.2444 23.0778 30.1084 22.9498 29.9404C22.8218 29.7684 22.7538 29.5844 22.7458 29.3884C22.7458 29.3564 22.7578 29.3284 22.7818 29.3044C22.8098 29.2764 22.8418 29.2624 22.8778 29.2624H23.1838C23.2598 29.2624 23.3118 29.3024 23.3398 29.3824C23.3758 29.5504 23.4778 29.6944 23.6458 29.8144C23.8178 29.9344 24.0578 29.9944 24.3658 29.9944C24.6978 29.9944 24.9478 29.9364 25.1158 29.8204C25.2838 29.7004 25.3678 29.5344 25.3678 29.3224C25.3678 29.1864 25.3258 29.0764 25.2418 28.9924C25.1618 28.9084 25.0418 28.8344 24.8818 28.7704C24.7218 28.7064 24.4818 28.6264 24.1618 28.5304C23.8498 28.4424 23.6018 28.3484 23.4178 28.2484C23.2338 28.1484 23.0958 28.0244 23.0038 27.8764C22.9118 27.7284 22.8658 27.5424 22.8658 27.3184C22.8658 27.1024 22.9238 26.9084 23.0398 26.7364C23.1598 26.5644 23.3298 26.4304 23.5498 26.3344C23.7698 26.2344 24.0318 26.1844 24.3358 26.1844C24.6478 26.1844 24.9158 26.2404 25.1398 26.3524C25.3638 26.4604 25.5338 26.5984 25.6498 26.7664C25.7658 26.9344 25.8278 27.1024 25.8358 27.2704C25.8358 27.3024 25.8238 27.3304 25.7998 27.3544C25.7798 27.3784 25.7498 27.3904 25.7098 27.3904H25.3918C25.3078 27.3904 25.2558 27.3524 25.2358 27.2764C25.2118 27.1084 25.1178 26.9704 24.9538 26.8624C24.7898 26.7504 24.5838 26.6944 24.3358 26.6944C24.0638 26.6944 23.8498 26.7464 23.6938 26.8504C23.5378 26.9544 23.4598 27.1084 23.4598 27.3124C23.4598 27.4484 23.4958 27.5604 23.5678 27.6484C23.6438 27.7364 23.7578 27.8144 23.9098 27.8824C24.0618 27.9464 24.2838 28.0204 24.5758 28.1044C24.9158 28.1964 25.1838 28.2924 25.3798 28.3924C25.5758 28.4884 25.7218 28.6104 25.8178 28.7584C25.9138 28.9024 25.9618 29.0864 25.9618 29.3104C25.9618 29.6824 25.8178 29.9744 25.5298 30.1864C25.2418 30.3984 24.8538 30.5044 24.3658 30.5044Z" fill="white"/>
</svg>
