<svg width="40" height="40" viewBox="0 0 40 40" fill="none" xmlns="http://www.w3.org/2000/svg">
<circle cx="20" cy="20" r="20" fill="#7AC751"/>
<path d="M14.9 19.8067C14.0787 19.8067 13.3787 19.676 12.8 19.4147C12.2307 19.1533 11.8013 18.8267 11.512 18.4347C11.232 18.0333 11.0827 17.6227 11.064 17.2027C11.064 17.1187 11.092 17.0533 11.148 17.0067C11.2133 16.9507 11.288 16.9227 11.372 16.9227H12.632C12.8373 16.9227 12.9727 17.016 13.038 17.2027C13.2433 17.8747 13.8687 18.2107 14.914 18.2107C15.4833 18.2107 15.9313 18.08 16.258 17.8187C16.5847 17.548 16.748 17.1653 16.748 16.6707C16.748 15.7373 16.1647 15.2707 14.998 15.2707H13.556C13.4533 15.2707 13.3693 15.238 13.304 15.1727C13.2387 15.1073 13.206 15.028 13.206 14.9347V14.3467C13.206 14.1973 13.2713 14.0573 13.402 13.9267L15.908 11.4767H11.904C11.8107 11.4767 11.7313 11.444 11.666 11.3787C11.6007 11.3133 11.568 11.234 11.568 11.1407V10.2167C11.568 10.114 11.596 10.03 11.652 9.96467C11.7173 9.89934 11.8013 9.86667 11.904 9.86667H17.91C18.0127 9.86667 18.0967 9.89934 18.162 9.96467C18.2273 10.03 18.26 10.114 18.26 10.2167V11.0567C18.26 11.1967 18.1993 11.3273 18.078 11.4487L15.656 13.9407L15.824 13.9547C16.72 14.0293 17.4293 14.3 17.952 14.7667C18.484 15.2333 18.75 15.9007 18.75 16.7687C18.75 17.3847 18.582 17.9213 18.246 18.3787C17.9193 18.836 17.462 19.1907 16.874 19.4427C16.2953 19.6853 15.6373 19.8067 14.9 19.8067ZM23.9564 19.8067C22.715 19.8067 21.7864 19.4613 21.1704 18.7707C20.5637 18.08 20.2324 17.1747 20.1764 16.0547C20.167 15.8027 20.1624 15.3733 20.1624 14.7667C20.1624 14.1507 20.167 13.712 20.1764 13.4507C20.223 12.3493 20.559 11.4533 21.1844 10.7627C21.8097 10.072 22.7337 9.72667 23.9564 9.72667C25.1884 9.72667 26.117 10.072 26.7424 10.7627C27.3677 11.4533 27.699 12.3493 27.7364 13.4507C27.755 13.712 27.7644 14.1507 27.7644 14.7667C27.7644 15.3733 27.755 15.8027 27.7364 16.0547C27.6897 17.1747 27.3584 18.08 26.7424 18.7707C26.1357 19.4613 25.207 19.8067 23.9564 19.8067ZM23.9564 18.1967C24.5444 18.1967 24.983 18.0053 25.2724 17.6227C25.5617 17.2307 25.7157 16.6847 25.7344 15.9847C25.753 15.4433 25.7624 15.0327 25.7624 14.7527C25.7624 14.4447 25.753 14.0387 25.7344 13.5347C25.7157 12.844 25.5617 12.3027 25.2724 11.9107C24.983 11.5187 24.5444 11.3227 23.9564 11.3227C23.3777 11.3227 22.939 11.5187 22.6404 11.9107C22.351 12.3027 22.197 12.844 22.1784 13.5347C22.169 13.7867 22.1644 14.1927 22.1644 14.7527C22.1644 15.3033 22.169 15.714 22.1784 15.9847C22.197 16.6847 22.351 17.2307 22.6404 17.6227C22.939 18.0053 23.3777 18.1967 23.9564 18.1967Z" fill="white"/>
<path d="M15.4531 30.4444C15.4131 30.4444 15.3791 30.4324 15.3511 30.4084C15.3271 30.3804 15.3151 30.3464 15.3151 30.3064V26.3884C15.3151 26.3444 15.3271 26.3104 15.3511 26.2864C15.3791 26.2584 15.4131 26.2444 15.4531 26.2444H15.7531C15.8171 26.2444 15.8691 26.2764 15.9091 26.3404L17.1751 28.7644L18.4531 26.3404C18.4611 26.3164 18.4771 26.2944 18.5011 26.2744C18.5291 26.2544 18.5631 26.2444 18.6031 26.2444H18.8971C18.9411 26.2444 18.9751 26.2584 18.9991 26.2864C19.0271 26.3104 19.0411 26.3444 19.0411 26.3884V30.3064C19.0411 30.3464 19.0271 30.3804 18.9991 30.4084C18.9711 30.4324 18.9371 30.4444 18.8971 30.4444H18.6031C18.5631 30.4444 18.5291 30.4324 18.5011 30.4084C18.4771 30.3804 18.4651 30.3464 18.4651 30.3064V27.3544L17.4631 29.3104C17.4231 29.3944 17.3591 29.4364 17.2711 29.4364H17.0851C16.9971 29.4364 16.9331 29.3944 16.8931 29.3104L15.8851 27.3544V30.3064C15.8851 30.3464 15.8711 30.3804 15.8431 30.4084C15.8191 30.4324 15.7871 30.4444 15.7471 30.4444H15.4531ZM20.2468 30.4444C20.2068 30.4444 20.1728 30.4324 20.1448 30.4084C20.1208 30.3804 20.1088 30.3464 20.1088 30.3064V26.3824C20.1088 26.3424 20.1208 26.3104 20.1448 26.2864C20.1728 26.2584 20.2068 26.2444 20.2468 26.2444H20.5648C20.6048 26.2444 20.6368 26.2584 20.6608 26.2864C20.6888 26.3104 20.7028 26.3424 20.7028 26.3824V30.3064C20.7028 30.3464 20.6888 30.3804 20.6608 30.4084C20.6368 30.4324 20.6048 30.4444 20.5648 30.4444H20.2468ZM21.9174 30.4444C21.8774 30.4444 21.8434 30.4324 21.8154 30.4084C21.7914 30.3804 21.7794 30.3464 21.7794 30.3064V26.3884C21.7794 26.3444 21.7914 26.3104 21.8154 26.2864C21.8434 26.2584 21.8774 26.2444 21.9174 26.2444H22.1934C22.2654 26.2444 22.3154 26.2724 22.3434 26.3284L24.3354 29.3884V26.3884C24.3354 26.3444 24.3474 26.3104 24.3714 26.2864C24.3994 26.2584 24.4334 26.2444 24.4734 26.2444H24.7614C24.8054 26.2444 24.8394 26.2584 24.8634 26.2864C24.8914 26.3104 24.9054 26.3444 24.9054 26.3884V30.3004C24.9054 30.3404 24.8914 30.3744 24.8634 30.4024C24.8394 30.4304 24.8074 30.4444 24.7674 30.4444H24.4794C24.4194 30.4444 24.3714 30.4164 24.3354 30.3604L22.3494 27.3304V30.3064C22.3494 30.3464 22.3354 30.3804 22.3074 30.4084C22.2794 30.4324 22.2454 30.4444 22.2054 30.4444H21.9174Z" fill="white"/>
</svg>
